<svg xmlns="http://www.w3.org/2000/svg" version="1.1" xmlns:xlink="http://www.w3.org/1999/xlink" xmlns:svgjs="http://svgjs.com/svgjs" width="1920" height="1080" preserveAspectRatio="none" viewBox="0 0 1920 1080">
    <g mask="url(&quot;#SvgjsMask1042&quot;)" fill="none">
        <rect width="1920" height="1080" x="0" y="0" fill="url(#SvgjsLinearGradient1043)"></rect>
        <path d="M0 0L48.36 0L0 170.66z" fill="rgba(255, 255, 255, .1)"></path>
        <path d="M0 170.66L48.36 0L156.64 0L0 210.12z" fill="rgba(255, 255, 255, .075)"></path>
        <path d="M0 210.12L156.64 0L987.83 0L0 387.9z" fill="rgba(255, 255, 255, .05)"></path>
        <path d="M0 387.9L987.83 0L1486.6200000000001 0L0 865.96z" fill="rgba(255, 255, 255, .025)"></path>
        <path d="M1920 1080L1034.0700000000002 1080L1920 1078.66z" fill="rgba(0, 0, 0, .1)"></path>
        <path d="M1920 1078.66L1034.0700000000002 1080L760.6600000000001 1080L1920 733.6800000000001z" fill="rgba(0, 0, 0, .075)"></path>
        <path d="M1920 733.6800000000001L760.6600000000001 1080L418.8500000000001 1080L1920 488.81000000000006z" fill="rgba(0, 0, 0, .05)"></path>
        <path d="M1920 488.80999999999995L418.85000000000014 1080L327.10000000000014 1080L1920 159.04999999999995z" fill="rgba(0, 0, 0, .025)"></path>
    </g>
    <defs>
        <mask id="SvgjsMask1042">
            <rect width="1920" height="1080" fill="#ffffff"></rect>
        </mask>
        <linearGradient x1="10.94%" y1="-19.44%" x2="89.06%" y2="119.44%" gradientUnits="userSpaceOnUse" id="SvgjsLinearGradient1043">
            <stop stop-color="#0e2a47" offset="0"></stop>
            <stop stop-color="#00459e" offset="1"></stop>
        </linearGradient>
    </defs>
</svg>